<?xml version="1.0" encoding="iso-8859-1"?>
<!-- Generator: Adobe Illustrator 18.0.0, SVG Export Plug-In . SVG Version: 6.00 Build 0)  -->
<!DOCTYPE svg PUBLIC "-//W3C//DTD SVG 1.1//EN" "http://www.w3.org/Graphics/SVG/1.1/DTD/svg11.dtd">
<svg version="1.1" id="Capa_1" xmlns="http://www.w3.org/2000/svg" xmlns:xlink="http://www.w3.org/1999/xlink" x="0px" y="0px"
	 viewBox="0 0 60 60" style="enable-background:new 0 0 60 60;" xml:space="preserve" fill='#fff'>
<g>
	<path d="M55.232,43.104C58.354,38.746,60,33.705,60,28.5c0-14.888-13.458-27-30-27S0,13.612,0,28.5s13.458,27,30,27
		c4.262,0,8.378-0.79,12.243-2.348c6.805,3.927,16.213,5.281,16.618,5.338c0.047,0.007,0.093,0.01,0.139,0.01
		c0.375,0,0.725-0.211,0.895-0.554c0.192-0.385,0.116-0.85-0.188-1.153C57.407,54.493,55.823,49.641,55.232,43.104z M42.839,51.182
		c-0.001,0-0.001,0-0.001,0c-2.11-1.303-4.466-2.814-5.014-3.249c-0.297-0.433-0.883-0.563-1.338-0.29
		c-0.3,0.18-0.489,0.513-0.491,0.861c-0.003,0.589,0.006,0.77,4.081,3.316C36.865,52.931,33.487,53.5,30,53.5
		c-15.439,0-28-11.215-28-25s12.561-25,28-25s28,11.215,28,25c0,4.897-1.591,9.644-4.601,13.725
		c-0.144,0.195-0.212,0.436-0.191,0.677c0.35,4.175,1.239,9.491,3.44,13.161C53.316,55.385,47.31,53.882,42.839,51.182z"/>
	<path d="M16,24.5c-2.206,0-4,1.794-4,4s1.794,4,4,4s4-1.794,4-4S18.206,24.5,16,24.5z M16,30.5c-1.103,0-2-0.897-2-2s0.897-2,2-2
		s2,0.897,2,2S17.103,30.5,16,30.5z"/>
	<path d="M30,24.5c-2.206,0-4,1.794-4,4s1.794,4,4,4s4-1.794,4-4S32.206,24.5,30,24.5z M30,30.5c-1.103,0-2-0.897-2-2s0.897-2,2-2
		s2,0.897,2,2S31.103,30.5,30,30.5z"/>
	<path d="M44,24.5c-2.206,0-4,1.794-4,4s1.794,4,4,4s4-1.794,4-4S46.206,24.5,44,24.5z M44,30.5c-1.103,0-2-0.897-2-2s0.897-2,2-2
		s2,0.897,2,2S45.103,30.5,44,30.5z"/>
</g>
<g>
</g>
<g>
</g>
<g>
</g>
<g>
</g>
<g>
</g>
<g>
</g>
<g>
</g>
<g>
</g>
<g>
</g>
<g>
</g>
<g>
</g>
<g>
</g>
<g>
</g>
<g>
</g>
<g>
</g>
</svg>
